<?xml version="1.0" encoding="UTF-8"?><svg id="b" xmlns="http://www.w3.org/2000/svg" viewBox="0 0 477.81 53.86"><g id="c"><g style="opacity:.5;"><path d="M0,16.35l9.72-1.37c.36.94.72,2.38.72,4.32,2.52-2.38,5.54-4.46,10.73-4.46,7.42,0,10.37,4.03,10.37,10.15v27.87h-11.45v-24.27c0-3.89-1.3-4.82-3.6-4.82-1.87,0-3.67.86-5.04,2.3v26.79H0V16.35Z" style="fill:#fff;"/><path d="M35.95,5.83c0-3.24,2.45-5.83,5.9-5.83s5.98,2.59,5.98,5.83-2.45,5.83-5.98,5.83-5.9-2.59-5.9-5.83ZM36.09,16.13l11.45-1.01v37.73h-11.45V16.13Z" style="fill:#fff;"/><path d="M50.62,34.35c0-12.31,6.41-19.51,17.86-19.51,4.54,0,8.28,1.15,10.73,3.02l-2.88,8.14c-2.09-1.37-3.82-2.38-6.55-2.38-4.32,0-7.2,3.02-7.2,10.44,0,7.85,2.88,10.94,7.2,10.94,2.81,0,4.54-1.01,6.62-2.52l2.88,8.14c-3.24,1.94-6.77,3.1-11.45,3.1-11.31,0-17.21-7.13-17.21-19.37Z" style="fill:#fff;"/><path d="M101.99,15.7h12.31l-10.37,16.71,11.16,20.45h-12.75l-9.29-18.65v18.65h-11.45V2.59l10.66-1.87c.5,2.02.79,4.9.79,8.64v22.61l8.93-16.27Z" style="fill:#fff;"/></g><g style="opacity:.5;"><path d="M347.63,47.45c0-3.67,2.81-6.48,6.48-6.48s6.34,2.81,6.34,6.55-2.88,6.34-6.55,6.34-6.26-2.66-6.26-6.41Z" style="fill:#fff;"/><path d="M361.71,34.35c0-12.31,6.41-19.51,17.86-19.51,4.54,0,8.28,1.15,10.73,3.02l-2.88,8.14c-2.09-1.37-3.82-2.38-6.55-2.38-4.32,0-7.2,3.02-7.2,10.44,0,7.85,2.88,10.94,7.2,10.94,2.81,0,4.54-1.01,6.62-2.52l2.88,8.14c-3.24,1.94-6.77,3.1-11.45,3.1-11.31,0-17.21-7.13-17.21-19.37Z" style="fill:#fff;"/><path d="M390.31,34.35c0-11.59,6.41-19.51,17.5-19.51,10.37,0,17.28,6.05,17.28,18.87,0,13.75-7.13,20.02-17.5,20.02s-17.28-7.34-17.28-19.37ZM412.85,33.84c0-9.07-1.73-11.38-5.18-11.38s-5.18,2.45-5.18,11.59,1.51,11.95,5.26,11.95c3.46,0,5.11-3.17,5.11-12.17Z" style="fill:#fff;"/><path d="M428.27,16.35l9.72-1.37c.36.86.65,2.16.72,3.89,2.3-2.3,5.18-4.03,9.72-4.03s7.56,1.8,8.78,4.75c2.59-2.81,5.62-4.75,10.37-4.75,7.27,0,10.22,3.96,10.22,10.01v28.01h-11.23v-24.77c0-3.38-1.22-4.32-3.46-4.32-1.66,0-3.24.79-4.46,2.09v27h-11.23v-24.77c0-3.38-1.22-4.32-3.46-4.32-1.66,0-3.24.79-4.46,2.09v27h-11.23V16.35Z" style="fill:#fff;"/></g><path d="M111.37,43.42v-19.95h-3.46v-7.78h3.46c0-3.74.22-7.2.5-9.29l10.87-1.58v10.87h6.62v7.78h-6.7v18.15c0,3.24.72,3.89,3.1,3.89,1.3,0,2.66-.43,3.53-.86l.94,7.49c-2.74,1.3-5.33,1.66-8.35,1.66-7.27,0-10.51-3.02-10.51-10.37Z"/><path d="M132.58,16.35l9.72-1.37c.36.86.72,3.17.72,4.39,1.37-2.66,3.96-4.61,7.56-4.61,1.22,0,2.66.14,4.03.72l-1.73,10.01c-.94-.43-1.94-.79-3.24-.79-3.31,0-5.18,1.8-5.62,4.54v23.62h-11.45V16.35Z"/><path d="M153.9,34.42c0-12.6,6.7-19.59,16.85-19.59,11.23,0,15.63,6.26,15.63,19.15v3.17h-20.74c.22,5.18,1.94,8.14,7.85,8.14,3.53,0,5.69-1.37,8.28-3.17l4.46,7.13c-4.03,2.95-8.5,4.46-14.33,4.46-12.24,0-18-7.42-18-19.3ZM175.28,30.67c.22-6.34-1.3-8.28-4.68-8.28s-4.9,2.3-4.97,8.28h9.65Z"/><path d="M209.92,11.31c0-8.06,3.67-11.31,10.66-11.31,2.95,0,5.62.65,7.27,1.44l-1.73,7.63c-.58-.36-1.37-.65-2.59-.65-1.51,0-2.16,1.15-2.16,3.31v3.96h19.08v37.16h-11.45v-29.38h-7.63v29.38h-11.45v-29.38h-7.63v29.38h-11.38v-29.38h-3.53v-7.78h3.38v-4.39c0-8.06,3.6-11.31,10.94-11.31,3.02,0,5.69.65,7.49,1.44l-1.8,7.63c-.65-.36-1.44-.65-2.66-.65-1.73,0-2.59,1.15-2.59,3.38v3.89h7.78v-4.39ZM228.57,5.83c0-3.24,2.74-5.83,6.19-5.83s5.98,2.59,5.98,5.83-2.74,5.83-6.26,5.83-5.9-2.59-5.9-5.83Z"/><path d="M245.5,42.92V2.59l10.66-1.87c.5,2.02.79,4.9.79,8.64v31.68c0,3.96.58,4.46,1.94,4.46.43,0,.65-.07,1.01-.14l.86,7.34c-1.44.58-2.95,1.01-5.76,1.01-8.28,0-9.5-4.32-9.5-10.8Z"/><path d="M260.74,34.42c0-12.6,6.7-19.59,16.85-19.59,11.23,0,15.63,6.26,15.63,19.15v3.17h-20.74c.22,5.18,1.94,8.14,7.85,8.14,3.53,0,5.69-1.37,8.28-3.17l4.46,7.13c-4.03,2.95-8.5,4.46-14.33,4.46-12.24,0-18-7.42-18-19.3ZM282.12,30.67c.22-6.34-1.3-8.28-4.68-8.28s-4.9,2.3-4.97,8.28h9.65Z"/><path d="M297.32,43.42v-19.95h-3.46v-7.78h3.46c0-3.74.22-7.2.5-9.29l10.87-1.58v10.87h6.62v7.78h-6.7v18.15c0,3.24.72,3.89,3.1,3.89,1.3,0,2.66-.43,3.53-.86l.94,7.49c-2.74,1.3-5.33,1.66-8.35,1.66-7.27,0-10.51-3.02-10.51-10.37Z"/><path d="M320.08,43.42v-19.95h-3.46v-7.78h3.46c0-3.74.22-7.2.5-9.29l10.87-1.58v10.87h6.62v7.78h-6.7v18.15c0,3.24.72,3.89,3.1,3.89,1.3,0,2.66-.43,3.53-.86l.94,7.49c-2.74,1.3-5.33,1.66-8.35,1.66-7.27,0-10.51-3.02-10.51-10.37Z"/><path d="M341.11,5.83c0-3.24,2.45-5.83,5.9-5.83s5.98,2.59,5.98,5.83-2.45,5.83-5.98,5.83-5.9-2.59-5.9-5.83ZM341.25,16.13l11.45-1.01v37.73h-11.45V16.13Z"/></g></svg>